<?xml version="1.0" standalone="no"?>
<!DOCTYPE svg PUBLIC "-//W3C//DTD SVG 20010904//EN"
 "http://www.w3.org/TR/2001/REC-SVG-20010904/DTD/svg10.dtd">
<svg version="1.0" xmlns="http://www.w3.org/2000/svg"
 width="260.000000pt" height="151.000000pt" viewBox="0 0 260.000000 151.000000"
 preserveAspectRatio="xMidYMid meet">

<g transform="translate(0.000000,151.000000) scale(0.100000,-0.100000)"
fill="#000000" stroke="none">
<path d="M520 1030 l0 -190 40 0 40 0 0 75 0 75 80 0 80 0 0 40 0 40 -80 0
-80 0 0 40 0 40 85 0 85 0 0 35 0 35 -125 0 -125 0 0 -190z"/>
<path d="M928 1197 c-128 -77 -127 -266 3 -332 48 -25 69 -20 69 17 0 23 -9
40 -35 64 -34 30 -35 35 -35 100 0 38 3 79 6 92 11 39 24 24 25 -30 1 -29 5
-64 9 -78 6 -19 8 -13 9 30 2 114 31 142 31 31 0 -39 5 -73 10 -76 6 -4 10 22
10 69 0 42 4 76 9 76 13 0 21 -37 21 -98 0 -33 4 -51 10 -47 6 3 10 37 10 76
0 102 26 84 31 -21 3 -86 -1 -102 -31 -128 -22 -19 -30 -35 -30 -59 0 -39 19
-43 66 -14 127 78 124 265 -7 331 -54 28 -133 27 -181 -3z"/>
<path d="M1379 1197 c-61 -33 -103 -112 -95 -179 7 -64 29 -103 78 -139 80
-57 112 -18 47 57 -35 40 -39 51 -39 97 0 62 25 109 71 133 29 15 35 15 64 1
35 -17 75 -85 75 -128 -1 -39 -35 -103 -63 -118 -35 -18 -39 -71 -7 -71 47 0
119 59 139 113 23 60 6 153 -37 200 -53 59 -157 74 -233 34z"/>
<path d="M1736 1033 l1 -188 82 -3 c134 -5 207 27 249 108 43 83 17 187 -60
238 -38 25 -51 27 -157 30 l-116 4 1 -189z m178 106 c59 -16 86 -49 86 -103 0
-36 -6 -52 -29 -78 -24 -27 -36 -32 -90 -36 l-61 -4 0 116 0 116 28 0 c15 0
44 -5 66 -11z"/>
<path d="M510 575 l0 -185 40 0 40 0 0 75 0 75 66 0 c59 0 68 3 95 29 24 25
29 38 29 78 0 83 -51 113 -192 113 l-78 0 0 -185z m171 105 c11 -6 19 -21 19
-36 0 -27 -30 -44 -81 -44 -28 0 -29 2 -29 45 0 45 0 45 36 45 19 0 44 -5 55
-10z"/>
<path d="M964 754 c-38 -9 -102 -72 -119 -119 -25 -64 -14 -121 38 -197 23
-33 65 -81 94 -105 l51 -44 71 66 c41 39 80 87 95 118 69 137 -7 277 -152 283
-32 1 -67 0 -78 -2z m109 -68 c134 -57 95 -236 -52 -236 -37 0 -49 6 -82 39
-32 32 -39 46 -39 77 0 50 31 101 73 119 41 18 60 18 100 1z"/>
<path d="M1005 630 c-3 -5 -12 -7 -19 -4 -22 8 -41 -23 -28 -49 6 -12 13 -35
17 -50 5 -27 8 -28 53 -25 44 3 47 5 50 32 2 16 10 35 17 43 14 14 10 42 -6
44 -5 1 -13 2 -18 3 -5 0 -13 4 -17 9 -10 10 -42 9 -49 -3z"/>
<path d="M1280 575 l0 -185 40 0 40 0 0 185 0 185 -40 0 -40 0 0 -185z"/>
<path d="M1410 575 l0 -185 40 0 39 0 3 127 3 126 78 -126 78 -127 49 0 50 0
0 186 0 185 -37 -3 -38 -3 -5 -121 -5 -121 -75 124 -75 123 -52 0 -53 0 0
-185z"/>
<path d="M1800 725 l0 -35 50 0 50 0 0 -150 0 -150 40 0 40 0 0 150 0 150 50
0 50 0 0 35 0 35 -140 0 -140 0 0 -35z"/>
</g>
</svg>
